<?xml version="1.0" standalone="no"?>
<svg xmlns:xlink="http://www.w3.org/1999/xlink" id="wave" style="transform:rotate(180deg); transition: 0.3s" viewBox="0 0 1440 100" version="1.1" xmlns="http://www.w3.org/2000/svg"><defs><linearGradient id="sw-gradient-0" x1="0" x2="0" y1="0" y2="0"><stop stop-color="rgba(2, 48, 71, 1)" offset="0%"/><stop stop-color="rgba(2, 48, 71, 1)" offset="100%"/></linearGradient></defs><path style="transform:translate(0, 0px); opacity:1" fill="url(#sw-gradient-0)" d="M0,20L240,30C480,40,960,60,1440,61.7C1920,63,2400,47,2880,43.3C3360,40,3840,50,4320,56.7C4800,63,5280,67,5760,61.7C6240,57,6720,43,7200,36.7C7680,30,8160,30,8640,33.3C9120,37,9600,43,10080,51.7C10560,60,11040,70,11520,76.7C12000,83,12480,87,12960,83.3C13440,80,13920,70,14400,56.7C14880,43,15360,27,15840,21.7C16320,17,16800,23,17280,33.3C17760,43,18240,57,18720,53.3C19200,50,19680,30,20160,28.3C20640,27,21120,43,21600,46.7C22080,50,22560,40,23040,43.3C23520,47,24000,63,24480,71.7C24960,80,25440,80,25920,80C26400,80,26880,80,27360,71.7C27840,63,28320,47,28800,45C29280,43,29760,57,30240,51.7C30720,47,31200,23,31680,15C32160,7,32640,13,33120,20C33600,27,34080,33,34320,36.7L34560,40L34560,100L34320,100C34080,100,33600,100,33120,100C32640,100,32160,100,31680,100C31200,100,30720,100,30240,100C29760,100,29280,100,28800,100C28320,100,27840,100,27360,100C26880,100,26400,100,25920,100C25440,100,24960,100,24480,100C24000,100,23520,100,23040,100C22560,100,22080,100,21600,100C21120,100,20640,100,20160,100C19680,100,19200,100,18720,100C18240,100,17760,100,17280,100C16800,100,16320,100,15840,100C15360,100,14880,100,14400,100C13920,100,13440,100,12960,100C12480,100,12000,100,11520,100C11040,100,10560,100,10080,100C9600,100,9120,100,8640,100C8160,100,7680,100,7200,100C6720,100,6240,100,5760,100C5280,100,4800,100,4320,100C3840,100,3360,100,2880,100C2400,100,1920,100,1440,100C960,100,480,100,240,100L0,100Z"/></svg>